<?xml version="1.0" standalone="no"?>
<!DOCTYPE svg PUBLIC "-//W3C//DTD SVG 20010904//EN"
 "http://www.w3.org/TR/2001/REC-SVG-20010904/DTD/svg10.dtd">
<svg version="1.0" xmlns="http://www.w3.org/2000/svg"
 width="252.000000pt" height="252.000000pt" viewBox="0 0 252.000000 252.000000"
 preserveAspectRatio="xMidYMid meet">
<metadata>
Created by potrace 1.11, written by Peter Selinger 2001-2013
</metadata>
<g transform="translate(0.000000,252.000000) scale(0.100000,-0.100000)"
fill="#000000" stroke="none">
<path d="M647 1953 c-11 -10 -8 -848 3 -952 13 -120 46 -214 105 -296 76 -106
177 -176 306 -211 89 -24 309 -24 398 0 177 48 319 177 377 346 37 105 45 236
42 695 l-3 420 -172 3 -172 2 -3 -487 c-3 -472 -4 -489 -24 -533 -47 -100
-116 -140 -244 -140 -128 0 -197 40 -244 140 -20 44 -21 61 -24 533 l-3 487
-168 0 c-92 0 -171 -3 -174 -7z"/>
</g>
</svg>
