<svg width="160" height="20" viewBox="0 0 160 20" fill="none" xmlns="http://www.w3.org/2000/svg">
<g clip-path="url(#clip0)">
<path d="M0 0.44873H14.213C18.1029 0.44873 20.2722 2.54328 20.2722 5.46068C20.2722 8.22847 18.2525 9.57496 15.0358 9.72457C18.5517 9.79938 20.8707 11.3703 20.8707 14.2877C20.8707 17.2799 18.4769 19.2996 14.8114 19.2996H0V0.44873ZM13.2405 8.00405C14.6618 8.00405 15.6343 7.55522 15.6343 6.20873C15.6343 4.86224 14.7366 4.41341 13.2405 4.41341H4.63792V8.00405H13.2405ZM13.839 15.335C15.2603 15.335 16.2327 14.8113 16.2327 13.39C16.2327 12.0435 15.3351 11.4451 13.839 11.4451H4.63792V15.335H13.839Z" fill="white"/>
<path d="M53.6354 0H34.9341C27.6032 0 23.04 3.88987 23.04 9.87429C23.04 15.8587 27.6032 19.7486 34.9341 19.7486H53.6354C61.0411 19.7486 65.5294 15.7839 65.5294 9.87429C65.5294 3.96468 60.9663 0 53.6354 0ZM53.6354 15.7839H34.9341C30.4458 15.7839 27.678 13.6894 27.678 9.87429C27.678 6.05922 30.4458 3.96468 34.9341 3.96468H53.6354C58.1237 3.96468 60.8915 6.05922 60.8915 9.87429C60.8915 13.6145 58.1237 15.7839 53.6354 15.7839Z" fill="white"/>
<path d="M74.5808 13.1657L64.108 0.374023H69.7932L76.8997 9.27584L84.0062 0.374023H89.6914L79.1439 13.0909V19.2249H74.506V13.1657H74.5808Z" fill="white"/>
<path d="M95.0774 0.44873H100.314L111.684 19.2996H106.223L104.204 15.709H91.1127L89.093 19.2996H83.707L95.0774 0.44873ZM102.034 11.7443L97.6956 4.18899L93.3569 11.7443H102.034Z" fill="white"/>
<path d="M113.405 0.44873H117.295L130.535 12.4176V0.44873H135.173V19.2996H131.283L118.117 7.33081V19.2996H113.479V0.44873H113.405Z" fill="white"/>
<path d="M146.319 4.3386H137.567V0.44873H159.709V4.41341H150.957V19.2996H146.319V4.3386Z" fill="white"/>
</g>
<defs>
<clipPath id="clip0">
<rect width="159.784" height="19.7486" fill="white"/>
</clipPath>
</defs>
</svg>
